<svg viewBox="0 0 12 12" xmlns="http://www.w3.org/2000/svg" xmlns:xlink="http://www.w3.org/1999/xlink" width="12.000000" height="12.000000" fill="none">
	<rect id="picture_star_fill" width="12.000000" height="12.000000" x="0.000000" y="0.000000" />
	<rect id="矩形 6895" width="12.000000" height="12.000000" x="0.000000" y="0.000000" opacity="0" fill="rgb(10,89,247)" />
	<g id="组合 4792">
		<path id="矢量 12" d="M9.41007 7.69004C9.33673 8.07671 9.16673 8.40504 8.90007 8.67504C8.63007 8.94837 8.29173 9.14004 7.88507 9.25004C7.84507 9.26671 7.8234 9.29671 7.82007 9.34004C7.8134 9.38671 7.83507 9.41337 7.88507 9.42004C8.2684 9.49337 8.5984 9.67337 8.87507 9.96004C9.15174 10.2467 9.33007 10.5867 9.41007 10.98C9.4234 11.0267 9.4534 11.05 9.50007 11.05C9.5434 11.05 9.5684 11.0267 9.57507 10.98C9.66507 10.58 9.85007 10.2384 10.1301 9.95504C10.4101 9.67171 10.7417 9.49337 11.1251 9.42004C11.1817 9.41337 11.2101 9.38671 11.2101 9.34004C11.2101 9.29671 11.1817 9.26671 11.1251 9.25004C10.7151 9.14004 10.3751 8.94837 10.1051 8.67504C9.83173 8.40504 9.65507 8.07671 9.57507 7.69004C9.5584 7.64337 9.5284 7.61837 9.48507 7.61504C9.44173 7.61171 9.41673 7.63671 9.41007 7.69004ZM6.61007 9.02504C6.58007 9.21504 6.49674 9.37671 6.36007 9.51004C6.2234 9.64337 6.05507 9.74171 5.85507 9.80504C5.83174 9.81171 5.82007 9.82504 5.82007 9.84504C5.82007 9.86504 5.83174 9.88004 5.85507 9.89004C6.0484 9.92004 6.2134 10.01 6.35007 10.16C6.4834 10.3067 6.57007 10.4767 6.61007 10.67C6.62007 10.6934 6.63673 10.705 6.66007 10.705C6.6834 10.705 6.70007 10.6934 6.71007 10.67C6.75007 10.47 6.84007 10.2967 6.98007 10.15C7.12007 10.0067 7.28507 9.92004 7.47507 9.89004C7.5084 9.88004 7.52507 9.86504 7.52507 9.84504C7.52507 9.82504 7.5084 9.81171 7.47507 9.80504C7.27507 9.74171 7.10673 9.64337 6.97007 9.51004C6.83673 9.37671 6.75007 9.21504 6.71007 9.02504C6.70007 9.00171 6.6834 8.98671 6.66007 8.98004C6.63673 8.97671 6.62007 8.99171 6.61007 9.02504Z" fill="rgb(10,89,247)" fill-rule="nonzero" />
		<path id="矢量 13" d="M4.25 3.62512C4.49 3.62512 4.69499 3.71012 4.865 3.88012C5.03833 4.05345 5.125 4.26012 5.125 4.50012C5.125 4.74012 5.03833 4.94678 4.865 5.12012C4.69499 5.29012 4.49 5.37512 4.25 5.37512C4.01 5.37512 3.80333 5.29012 3.63 5.12012C3.45666 4.94678 3.37 4.74012 3.37 4.50012C3.37 4.26012 3.45666 4.05345 3.63 3.88012C3.80333 3.71012 4.01 3.62512 4.25 3.62512ZM10.99 2.96512C10.99 2.61178 10.9033 2.28345 10.73 1.98012C10.5533 1.67678 10.315 1.43678 10.015 1.26012C9.715 1.08345 9.38833 0.995117 9.035 0.995117L2.96499 0.995117C2.61166 0.995117 2.28333 1.08345 1.98 1.26012C1.67666 1.43678 1.43666 1.67678 1.26 1.98012C1.08333 2.28345 0.994995 2.61178 0.994995 2.96512L0.994995 9.02512C0.994995 9.38512 1.08333 9.71678 1.26 10.0201C1.43666 10.3235 1.67666 10.5635 1.98 10.7401C2.28333 10.9168 2.61166 11.0051 2.96499 11.0051L4.825 11.0051C4.975 11.0051 5.09333 10.9735 5.18 10.9101C5.26333 10.8435 5.305 10.7501 5.305 10.6301C5.305 10.5101 5.26333 10.4168 5.18 10.3501C5.09333 10.2835 4.975 10.2501 4.825 10.2501L2.95 10.2501C2.64 10.2501 2.37 10.1435 2.14 9.93012C1.91333 9.71678 1.78333 9.45512 1.75 9.14512L6.78 5.48512C6.94 5.37178 7.11333 5.29678 7.3 5.26012C7.49 5.22678 7.67666 5.23512 7.86 5.28512C8.04333 5.33845 8.20666 5.42845 8.35 5.55512L10.99 7.85012L10.99 2.96512Z" fill="rgb(10,89,247)" fill-rule="nonzero" />
	</g>
</svg>
